<?xml version="1.0" standalone="no"?>
<!DOCTYPE svg PUBLIC "-//W3C//DTD SVG 1.1//EN" "http://www.w3.org/Graphics/SVG/1.1/DTD/svg11.dtd" >
<svg xmlns="http://www.w3.org/2000/svg">
<metadata>Generated by IcoMoon</metadata>
<defs>
<font id="icomoon" horiz-adv-x="1024">
<font-face units-per-em="1024" ascent="960" descent="-64" />
<missing-glyph horiz-adv-x="1024" />
<glyph unicode="&#x20;" horiz-adv-x="512" d="" />
<glyph unicode="&#xe900;" glyph-name="back" d="M542.17 716.497c16.661 16.663 16.661 43.677 0 60.34s-43.678 16.662-60.339 0l-298.667-298.667c-8.001-8-12.497-18.854-12.497-30.17s4.495-22.17 12.497-30.17l298.667-298.667c16.661-16.661 43.678-16.661 60.339 0s16.661 43.678 0 60.339l-225.83 225.83h494.327c23.565 0 42.667 19.102 42.667 42.667s-19.102 42.667-42.667 42.667h-494.327l225.83 225.83z" />
<glyph unicode="&#xe901;" glyph-name="brightness" d="M567.211 865.245c-30.494 30.492-79.932 30.492-110.421 0l-81.047-81.045c-1.36-1.36-3.205-2.125-5.129-2.125h-114.613c-43.123 0-78.080-34.957-78.080-78.080v-114.613c0-1.923-0.765-3.768-2.125-5.129l-81.047-81.047c-30.492-30.49-30.492-79.927 0-110.421l81.047-81.045c1.36-1.361 2.125-3.209 2.125-5.129v-114.615c0-43.123 34.957-78.080 78.080-78.080h114.613c1.923 0 3.768-0.764 5.129-2.125l81.047-81.045c30.49-30.49 79.927-30.49 110.421 0l81.045 81.045c1.361 1.361 3.204 2.125 5.129 2.125h114.615c43.123 0 78.080 34.957 78.080 78.080v114.615c0 1.924 0.764 3.772 2.125 5.129l81.045 81.045c30.49 30.494 30.49 79.932 0 110.421l-81.045 81.044c-1.361 1.36-2.125 3.205-2.125 5.129v114.617c0 43.123-34.957 78.080-78.080 78.080h-114.615c-1.924 0-3.767 0.765-5.129 2.125l-81.045 81.045zM506.871 815.163c2.833 2.833 7.424 2.833 10.257 0l81.045-81.045c14.643-14.643 34.5-22.869 55.211-22.869h114.615c4.006 0 7.253-3.247 7.253-7.253v-114.617c0-20.708 8.226-40.568 22.869-55.211l81.045-81.044c2.833-2.833 2.833-7.424 0-10.257l-81.045-81.045c-14.643-14.639-22.869-34.5-22.869-55.211v-114.615c0-4.006-3.247-7.253-7.253-7.253h-114.615c-20.71 0-40.567-8.226-55.211-22.869l-81.045-81.045c-2.833-2.833-7.424-2.833-10.257 0l-81.047 81.045c-14.643 14.643-34.503 22.869-55.211 22.869h-114.613c-4.006 0-7.253 3.247-7.253 7.253v114.615c0 20.706-8.227 40.567-22.869 55.211l-81.047 81.045c-2.832 2.833-2.833 7.424 0 10.257l81.047 81.047c14.643 14.643 22.869 34.503 22.869 55.211v114.613c0 4.006 3.247 7.253 7.253 7.253h114.613c20.708 0 40.568 8.227 55.211 22.869l81.047 81.045zM725.333 447.996c0-110.63-84.211-201.596-192.030-212.284-11.725-1.161-21.303 8.503-21.303 20.284v384c0 11.782 9.579 21.446 21.303 20.283 107.819-10.69 192.030-101.652 192.030-212.283z" />
<glyph unicode="&#xe902;" glyph-name="brush" d="M901.175 801.833c-49.984 49.987-131.029 49.987-181.018 0l-305.988-305.986c-49.987-49.988-49.987-131.034 0-181.022l7.32-7.317c49.989-49.988 131.034-49.988 181.018 0l305.988 305.986c49.988 49.987 49.988 131.032 0 181.019l-7.322 7.32zM780.497 741.493c16.661 16.662 43.678 16.662 60.339 0l7.322-7.32c16.661-16.663 16.661-43.677 0-60.34l-305.988-305.986c-16.661-16.661-43.678-16.661-60.339 0l-7.322 7.322c-16.661 16.661-16.661 43.674 0 60.339l305.988 305.986zM249.425 219.772c10.435 9.937 22.445 14.899 38.575 14.899s28.14-4.962 38.575-14.899c10.355-9.86 14.759-20.339 14.759-33.865 0-21.427-7.437-39.083-24.359-55.198-16.985-16.179-36.524-24.038-60.975-24.038-15.557 0-31.409 3.247-47.829 10.334 18.065 18.577 26.496 42.752 26.496 68.902 0 13.525 4.404 24.004 14.758 33.865zM288 320.004c-37.204 0-70.527-12.821-97.425-38.438-26.979-25.694-41.241-58.389-41.241-95.659 0-7.915-2.014-9.37-3.918-10.748l-0.016-0.013c-9.178-6.635-14.749-7.526-17.399-7.526-16.342 0-31.249-9.331-38.385-24.034s-5.247-32.188 4.864-45.030c18.912-24.013 43.285-42.65 71.977-56.311 28.714-13.675 58.683-20.907 89.544-20.907 45.95 0 86.677 16.009 119.825 47.578 33.212 31.629 50.841 71.369 50.841 116.992 0 37.269-14.262 69.965-41.241 95.659-26.898 25.617-60.221 38.438-97.425 38.438z" />
<glyph unicode="&#xe903;" glyph-name="clock" d="M128 448c0 212.077 171.923 384 384 384 212.079 0 384-171.923 384-384 0-212.079-171.921-384-384-384-212.077 0-384 171.921-384 384zM512 917.333c-259.206 0-469.333-210.128-469.333-469.333 0-259.204 210.128-469.333 469.333-469.333 259.204 0 469.333 210.129 469.333 469.333 0 259.206-210.129 469.333-469.333 469.333zM554.667 704c0 23.564-19.102 42.667-42.667 42.667s-42.667-19.103-42.667-42.667v-237.124c0-24.043 10.142-46.972 27.934-63.142l173.764-157.969c17.438-15.851 44.42-14.566 60.271 2.867 15.851 17.438 14.566 44.42-2.867 60.271l-173.769 157.973v237.124z" />
<glyph unicode="&#xe904;" glyph-name="contrast" d="M163.415 448.004c0 192.518 156.068 348.586 348.585 348.586v-697.172c-192.517 0-348.585 156.066-348.585 348.587zM512 867.417c-231.634 0-419.412-187.778-419.412-419.412 0-231.637 187.778-419.413 419.412-419.413 231.637 0 419.413 187.776 419.413 419.413 0 231.635-187.776 419.412-419.413 419.412z" />
<glyph unicode="&#xe905;" glyph-name="crop" d="M298.667 874.667c0 23.564-19.103 42.667-42.667 42.667s-42.667-19.103-42.667-42.667v-128h-128c-23.564 0-42.667-19.103-42.667-42.667s19.103-42.667 42.667-42.667h128v-384c0-70.694 57.308-128 128-128h384v-128c0-23.565 19.102-42.667 42.667-42.667s42.667 19.102 42.667 42.667v128h128c23.565 0 42.667 19.102 42.667 42.667s-19.102 42.667-42.667 42.667h-597.333c-23.564 0-42.667 19.102-42.667 42.667v597.333zM426.667 746.667c-23.564 0-42.667-19.103-42.667-42.667s19.102-42.667 42.667-42.667h256c23.565 0 42.667-19.103 42.667-42.667v-256c0-23.565 19.102-42.667 42.667-42.667s42.667 19.102 42.667 42.667v256c0 70.692-57.306 128-128 128h-256z" />
<glyph unicode="&#xe906;" glyph-name="cross" d="M737.83 734.17c16.661 16.662 43.678 16.662 60.339 0s16.661-43.677 0-60.34l-225.83-225.83 225.83-225.83c16.661-16.661 16.661-43.678 0-60.339s-43.678-16.661-60.339 0l-225.83 225.83-225.83-225.83c-16.663-16.661-43.677-16.661-60.34 0s-16.662 43.678 0 60.339l225.831 225.83-225.831 225.83c-16.662 16.663-16.662 43.677 0 60.34s43.677 16.662 60.34 0l225.83-225.831 225.83 225.831z" />
<glyph unicode="&#xe907;" glyph-name="enhance" d="M535.027 786.197c-3.729 1.961-8.183 1.961-11.913 0l-41.31-21.717c-9.387-4.937-20.365 3.037-18.569 13.494l7.889 45.997c0.708 4.152-0.666 8.389-3.682 11.33l-33.421 32.576c-7.596 7.405-3.405 20.307 7.095 21.833l46.182 6.711c4.169 0.606 7.774 3.224 9.638 7.002l20.655 41.85c4.693 9.514 18.261 9.514 22.955 0l20.655-41.85c1.865-3.778 5.47-6.396 9.638-7.002l46.182-6.711c10.5-1.525 14.69-14.427 7.095-21.833l-33.421-32.576c-3.017-2.941-4.395-7.177-3.682-11.33l7.889-45.997c1.796-10.456-9.182-18.43-18.569-13.494l-41.31 21.717zM106.656 744.426c-2.663 1.4-5.845 1.4-8.509 0l-29.506-15.512c-6.707-3.526-14.547 2.169-13.265 9.638l5.635 32.855c0.509 2.966-0.475 5.992-2.63 8.093l-23.871 23.268c-5.426 5.289-2.432 14.505 5.067 15.595l32.988 4.793c2.978 0.433 5.552 2.303 6.884 5.002l14.753 29.892c3.354 6.796 13.044 6.796 16.398 0l14.753-29.892c1.332-2.699 3.906-4.569 6.884-5.002l32.988-4.793c7.5-1.090 10.494-10.306 5.067-15.595l-23.87-23.268c-2.155-2.1-3.138-5.127-2.63-8.093l5.635-32.855c1.281-7.469-6.558-13.164-13.266-9.638l-29.506 15.512zM166.413 283.627c2.663 1.399 5.845 1.399 8.509 0l29.506-15.514c6.707-3.524 14.547 2.172 13.266 9.638l-5.635 32.853c-0.509 2.97 0.475 5.995 2.63 8.094l23.871 23.27c5.426 5.286 2.432 14.502-5.067 15.595l-32.989 4.791c-2.978 0.435-5.552 2.304-6.884 5.001l-14.753 29.892c-3.354 6.797-13.044 6.797-16.397 0l-14.753-29.892c-1.332-2.697-3.906-4.565-6.884-5.001l-32.988-4.791c-7.499-1.092-10.493-10.308-5.067-15.595l23.871-23.27c2.155-2.099 3.138-5.124 2.629-8.094l-5.635-32.853c-1.281-7.467 6.558-13.163 13.266-9.638l29.506 15.514zM397.971 696.327l515.962-515.962c35.994-35.994 35.994-94.345 0-130.334l-38.097-38.097c-35.989-35.994-94.34-35.994-130.334 0l-515.962 515.964c-35.991 35.989-35.991 94.342 0 130.333l38.097 38.097c35.991 35.991 94.343 35.991 130.334 0zM863.851 130.283l-394.513 394.513-68.267-68.267 394.513-394.513c8.333-8.333 21.841-8.333 30.17 0l38.097 38.097c8.333 8.329 8.333 21.837 0 30.17z" />
<glyph unicode="&#xe908;" glyph-name="fade" d="M512 867.417c-19.558 0-35.413-15.855-35.413-35.413s15.855-35.413 35.413-35.413c192.521 0 348.587-156.068 348.587-348.586 0-192.521-156.066-348.587-348.587-348.587-19.558 0-35.413-15.855-35.413-35.413s15.855-35.413 35.413-35.413c231.637 0 419.413 187.776 419.413 419.413 0 231.635-187.776 419.412-419.413 419.412zM182.933 332.271c8.178-8.179 18.311-12.267 30.4-12.267s22.222 4.087 30.4 12.267c8.178 8.175 12.267 18.308 12.267 30.4 0 12.087-4.089 22.221-12.267 30.4-8.178 8.175-18.311 12.267-30.4 12.267s-22.222-4.092-30.4-12.267c-8.178-8.179-12.267-18.313-12.267-30.4 0-12.092 4.089-22.225 12.267-30.4zM182.933 161.604c8.178-8.179 18.311-12.267 30.4-12.267s22.222 4.087 30.4 12.267c8.178 8.175 12.267 18.308 12.267 30.4 0 12.087-4.089 22.221-12.267 30.4-8.178 8.175-18.311 12.267-30.4 12.267s-22.222-4.092-30.4-12.267c-8.178-8.179-12.267-18.313-12.267-30.4 0-12.092 4.089-22.225 12.267-30.4zM182.933 502.938c8.178-8.179 18.311-12.267 30.4-12.267s22.222 4.087 30.4 12.267c8.178 8.175 12.267 18.308 12.267 30.399 0 12.089-4.089 22.222-12.267 30.4s-18.311 12.267-30.4 12.267c-12.089 0-22.222-4.089-30.4-12.267s-12.267-18.311-12.267-30.4c0-12.091 4.089-22.224 12.267-30.399zM70.4 518.404c4.267-4.267 9.245-6.4 14.933-6.4s10.667 2.133 14.933 6.4c4.267 4.267 6.4 9.242 6.4 14.932s-2.133 10.667-6.4 14.933-9.245 6.4-14.933 6.4c-5.689 0-10.667-2.133-14.933-6.4s-6.4-9.245-6.4-14.933c0-5.691 2.133-10.666 6.4-14.932zM182.933 673.603c8.178-8.178 18.311-12.267 30.4-12.267s22.222 4.089 30.4 12.267c8.178 8.177 12.267 18.311 12.267 30.4s-4.089 22.222-12.267 30.4c-8.178 8.177-18.311 12.267-30.4 12.267s-22.222-4.089-30.4-12.267c-8.178-8.178-12.267-18.311-12.267-30.4s4.089-22.223 12.267-30.4zM70.4 347.738c4.267-4.267 9.245-6.4 14.933-6.4s10.667 2.133 14.933 6.4c4.267 4.267 6.4 9.242 6.4 14.933 0 5.687-2.133 10.667-6.4 14.933s-9.245 6.4-14.933 6.4c-5.689 0-10.667-2.133-14.933-6.4s-6.4-9.246-6.4-14.933c0-5.692 2.133-10.667 6.4-14.933zM369.067 49.071c4.267-4.267 9.245-6.4 14.933-6.4s10.667 2.133 14.933 6.4c4.267 4.267 6.4 9.242 6.4 14.933 0 5.687-2.133 10.667-6.4 14.933s-9.245 6.4-14.933 6.4c-5.689 0-10.667-2.133-14.933-6.4s-6.4-9.246-6.4-14.933c0-5.692 2.133-10.667 6.4-14.933zM369.067 817.070c4.267-4.267 9.245-6.4 14.933-6.4s10.667 2.133 14.933 6.4c4.267 4.267 6.4 9.244 6.4 14.933s-2.133 10.667-6.4 14.933c-4.267 4.267-9.245 6.4-14.933 6.4s-10.667-2.133-14.933-6.4c-4.267-4.267-6.4-9.245-6.4-14.933s2.133-10.667 6.4-14.933zM353.6 673.603c8.178-8.178 18.311-12.267 30.4-12.267s22.222 4.089 30.4 12.267c8.178 8.177 12.267 18.311 12.267 30.4s-4.089 22.222-12.267 30.4c-8.178 8.177-18.311 12.267-30.4 12.267s-22.222-4.089-30.4-12.267c-8.178-8.178-12.267-18.311-12.267-30.4s4.089-22.223 12.267-30.4zM338.667 317.338c12.445-12.446 27.555-18.667 45.333-18.667s32.889 6.221 45.333 18.667c12.446 12.442 18.667 27.554 18.667 45.333 0 17.775-6.221 32.887-18.667 45.333-12.445 12.442-27.555 18.667-45.333 18.667s-32.889-6.225-45.333-18.667c-12.445-12.446-18.667-27.558-18.667-45.333 0-17.779 6.222-32.892 18.667-45.333zM338.667 488.004c12.445-12.446 27.555-18.667 45.333-18.667s32.889 6.221 45.333 18.667c12.446 12.442 18.667 27.554 18.667 45.332s-6.221 32.889-18.667 45.333c-12.445 12.444-27.555 18.667-45.333 18.667s-32.889-6.223-45.333-18.667c-12.445-12.445-18.667-27.556-18.667-45.333s6.222-32.891 18.667-45.332zM353.6 161.604c8.178-8.179 18.311-12.267 30.4-12.267s22.222 4.087 30.4 12.267c8.178 8.175 12.267 18.308 12.267 30.4 0 12.087-4.089 22.221-12.267 30.4-8.178 8.175-18.311 12.267-30.4 12.267s-22.222-4.092-30.4-12.267c-8.178-8.179-12.267-18.313-12.267-30.4 0-12.092 4.089-22.225 12.267-30.4z" />
<glyph unicode="&#xe909;" glyph-name="flip" d="M512 910.083c19.558 0 35.413-15.855 35.413-35.413v-853.332c0-19.558-15.855-35.413-35.413-35.413s-35.413 15.855-35.413 35.413v853.332c0 19.558 15.855 35.413 35.413 35.413zM135.255 746.67c0 43.122 34.958 78.080 78.080 78.080h128c19.558 0 35.413-15.855 35.413-35.413s-15.855-35.413-35.413-35.413h-128c-4.006 0-7.253-3.247-7.253-7.253v-597.332c0-4.006 3.248-7.253 7.253-7.253h128c19.558 0 35.413-15.855 35.413-35.413s-15.855-35.413-35.413-35.413h-128c-43.122 0-78.080 34.957-78.080 78.080v597.332zM682.667 746.67c23.565 0 42.667 19.102 42.667 42.667s-19.102 42.667-42.667 42.667c-23.561 0-42.667-19.103-42.667-42.667s19.106-42.667 42.667-42.667zM896 789.337c0-23.564-19.102-42.667-42.667-42.667-23.561 0-42.667 19.102-42.667 42.667s19.106 42.667 42.667 42.667c23.565 0 42.667-19.103 42.667-42.667zM853.333 405.338c23.565 0 42.667 19.102 42.667 42.667s-19.102 42.667-42.667 42.667c-23.561 0-42.667-19.102-42.667-42.667s19.106-42.667 42.667-42.667zM896 106.671c0-23.565-19.102-42.667-42.667-42.667-23.561 0-42.667 19.102-42.667 42.667s19.106 42.667 42.667 42.667c23.565 0 42.667-19.102 42.667-42.667zM682.667 64.004c23.565 0 42.667 19.102 42.667 42.667s-19.102 42.667-42.667 42.667c-23.561 0-42.667-19.102-42.667-42.667s19.106-42.667 42.667-42.667zM896 277.338c0-23.565-19.102-42.667-42.667-42.667-23.561 0-42.667 19.102-42.667 42.667s19.106 42.667 42.667 42.667c23.565 0 42.667-19.102 42.667-42.667zM853.333 576.003c23.565 0 42.667 19.102 42.667 42.667s-19.102 42.667-42.667 42.667c-23.561 0-42.667-19.103-42.667-42.667s19.106-42.667 42.667-42.667z" />
<glyph unicode="&#xe90a;" glyph-name="FrameNo" d="M544.777 696.079l192-469.335c7.407-18.099-1.263-38.78-19.366-46.182-18.103-7.407-38.78 1.263-46.187 19.366l-52.087 127.33h-214.269l-52.089-127.33c-7.405-18.103-28.083-26.773-46.185-19.366-18.102 7.403-26.773 28.083-19.368 46.182l192 469.335c5.444 13.309 18.398 22.005 32.777 22.005s27.332-8.695 32.777-22.005zM590.161 398.084l-78.161 191.056-78.161-191.056h156.322z" />
<glyph unicode="&#xe90b;" glyph-name="FrameWhite" d="M163.284 740.777c-13.951-27.38-13.951-63.224-13.951-134.911v-315.733c0-71.689 0-107.529 13.951-134.912 12.272-24.085 31.853-43.665 55.938-55.936 27.38-13.952 63.224-13.952 134.911-13.952h315.733c71.689 0 107.529 0 134.912 13.952 24.085 12.271 43.665 31.851 55.936 55.936 13.952 27.383 13.952 63.223 13.952 134.912v315.733c0 71.687 0 107.53-13.952 134.911-12.271 24.085-31.851 43.666-55.936 55.938-27.383 13.951-63.223 13.951-134.912 13.951h-315.733c-71.687 0-107.53 0-134.911-13.951-24.085-12.272-43.666-31.853-55.938-55.938zM512 718.080c14.379 0 27.332-8.695 32.777-22.005l192-469.331c7.407-18.103-1.263-38.784-19.366-46.187-18.103-7.407-38.78 1.267-46.187 19.366l-52.087 127.33h-214.269l-52.089-127.33c-7.405-18.099-28.083-26.773-46.185-19.366-18.102 7.403-26.773 28.083-19.368 46.187l192 469.331c5.444 13.309 18.398 22.005 32.777 22.005zM512 589.137l78.161-191.057h-156.322l78.161 191.057z" />
<glyph unicode="&#xe90c;" glyph-name="grain" d="M256 106.667c-23.467 0-43.555 8.354-60.267 25.067s-25.067 36.8-25.067 60.267c0 23.467 8.355 43.554 25.067 60.267s36.8 25.067 60.267 25.067c23.467 0 43.555-8.354 60.267-25.067s25.067-36.8 25.067-60.267c0-23.467-8.355-43.554-25.067-60.267s-36.8-25.067-60.267-25.067zM597.333 106.667c-23.467 0-43.554 8.354-60.267 25.067s-25.067 36.8-25.067 60.267c0 23.467 8.354 43.554 25.067 60.267s36.8 25.067 60.267 25.067c23.467 0 43.554-8.354 60.267-25.067s25.067-36.8 25.067-60.267c0-23.467-8.354-43.554-25.067-60.267s-36.8-25.067-60.267-25.067zM426.667 277.333c-23.467 0-43.555 8.354-60.267 25.067s-25.067 36.8-25.067 60.267c0 23.467 8.355 43.554 25.067 60.267s36.8 25.067 60.267 25.067c23.467 0 43.554-8.354 60.267-25.067s25.067-36.8 25.067-60.267c0-23.467-8.354-43.554-25.067-60.267s-36.8-25.067-60.267-25.067zM768 277.333c-23.467 0-43.554 8.354-60.267 25.067s-25.067 36.8-25.067 60.267c0 23.467 8.354 43.554 25.067 60.267s36.8 25.067 60.267 25.067c23.467 0 43.554-8.354 60.267-25.067s25.067-36.8 25.067-60.267c0-23.467-8.354-43.554-25.067-60.267s-36.8-25.067-60.267-25.067zM256 448c-23.467 0-43.555 8.354-60.267 25.067s-25.067 36.8-25.067 60.267c0 23.467 8.355 43.555 25.067 60.267s36.8 25.067 60.267 25.067c23.467 0 43.555-8.355 60.267-25.067s25.067-36.8 25.067-60.267c0-23.467-8.355-43.554-25.067-60.267s-36.8-25.067-60.267-25.067zM597.333 448c-23.467 0-43.554 8.354-60.267 25.067s-25.067 36.8-25.067 60.267c0 23.467 8.354 43.555 25.067 60.267s36.8 25.067 60.267 25.067c23.467 0 43.554-8.355 60.267-25.067s25.067-36.8 25.067-60.267c0-23.467-8.354-43.554-25.067-60.267s-36.8-25.067-60.267-25.067zM426.667 618.667c-23.467 0-43.555 8.355-60.267 25.067s-25.067 36.8-25.067 60.267c0 23.467 8.355 43.555 25.067 60.267s36.8 25.067 60.267 25.067c23.467 0 43.554-8.355 60.267-25.067s25.067-36.8 25.067-60.267c0-23.467-8.354-43.555-25.067-60.267s-36.8-25.067-60.267-25.067zM768 618.667c-23.467 0-43.554 8.355-60.267 25.067s-25.067 36.8-25.067 60.267c0 23.467 8.354 43.555 25.067 60.267s36.8 25.067 60.267 25.067c23.467 0 43.554-8.355 60.267-25.067s25.067-36.8 25.067-60.267c0-23.467-8.354-43.555-25.067-60.267s-36.8-25.067-60.267-25.067z" />
<glyph unicode="&#xe90d;" glyph-name="highlights" d="M163.415 448.004c0 192.518 156.068 348.586 348.585 348.586 26.573 0 52.45-2.973 77.321-8.605-122.082-64.294-205.319-192.418-205.319-339.981 0-147.567 83.237-275.686 205.319-339.985-24.87-5.628-50.748-8.602-77.321-8.602-192.517 0-348.585 156.066-348.585 348.587zM512 867.417c-231.634 0-419.412-187.778-419.412-419.412 0-231.637 187.778-419.413 419.412-419.413 231.637 0 419.413 187.776 419.413 419.413 0 231.635-187.776 419.412-419.413 419.412z" />
<glyph unicode="&#xe90e;" glyph-name="more" d="M597.333 704c0-47.128-38.204-85.333-85.333-85.333s-85.333 38.205-85.333 85.333c0 47.128 38.204 85.333 85.333 85.333s85.333-38.205 85.333-85.333zM597.333 448c0-47.13-38.204-85.333-85.333-85.333s-85.333 38.204-85.333 85.333c0 47.13 38.204 85.333 85.333 85.333s85.333-38.204 85.333-85.333zM512 106.667c47.13 0 85.333 38.204 85.333 85.333s-38.204 85.333-85.333 85.333c-47.13 0-85.333-38.204-85.333-85.333s38.204-85.333 85.333-85.333z" />
<glyph unicode="&#xe90f;" glyph-name="sharpen" d="M486.784 816.768c-5.78-2.177-10.658-4.503-15.308-7.179l0.503 0.267c-9.941-6.144-23.552-22.528-34.816-41.941-12.971-22.315-282.965-517.12-297.387-544.981-4.559-8.394-9.158-18.523-13.081-28.981l-0.572-1.739c-2.37-6.961-3.738-14.979-3.738-23.316 0-34.046 22.812-62.763 53.985-71.701l0.526-0.129c11.264-3.072 23.552-3.2 335.104-3.2s323.84 0.128 335.104 3.2c31.699 9.067 54.512 37.785 54.512 71.83 0 8.338-1.368 16.356-3.892 23.842l0.154-0.526c-4.496 12.197-9.094 22.326-14.314 32.071l0.661-1.351c-14.336 27.648-284.331 522.496-297.387 544.981-13.952 24.064-27.221 38.443-42.197 45.696-10.283 4.992-13.013 5.504-30.080 5.973-15.317 0.427-20.437-0.085-27.776-2.816zM476.16 426.667v-263.68h-132.864c-73.088 0-136.533 0.512-140.971 1.109s-8.491 2.176-8.96 3.456c-0.512 1.323 2.475 9.088 6.613 17.237 9.771 19.328 274.859 505.557 275.627 505.557 0.299 0 0.555-118.656 0.555-263.68zM572.587 646.784c12.672-23.339 23.040-42.88 23.040-43.392 0-0.555-10.752-11.733-23.893-24.832l-23.893-23.851v68.096c0 37.461 0.384 67.712 0.853 67.243s11.221-19.968 23.893-43.264zM651.861 501.376c10.368-18.987 18.859-35.115 18.859-35.84s-27.648-28.971-61.44-62.763l-61.44-61.44v114.304l41.344 41.387c22.741 22.741 41.899 40.789 42.581 40.107s9.728-16.768 20.096-35.755zM726.613 364.544c10.539-19.541 19.2-36.224 19.2-37.077 0-0.811-36.693-38.187-81.493-82.987l-81.493-81.493h-34.987v79.36l78.933 78.933c26.146 26.412 52.141 52.124 78.406 77.56l1.381 1.331c0.469-0.043 9.472-16.043 20.053-35.627zM804.864 220.587c25.856-47.915 27.648-51.797 24.747-54.699-2.389-2.389-145.237-4.053-145.237-1.749 0 1.493 95.829 97.835 97.28 97.835 0.469 0 10.923-18.645 23.211-41.387z" />
<glyph unicode="&#xe910;" glyph-name="shadows" d="M483.84 866.091c-153.003-9.643-290.901-105.259-354.133-245.589-15.531-34.432-26.112-70.4-32.725-111.232-5.291-32.725-5.291-89.813 0-122.539 15.147-93.568 53.717-169.856 118.827-234.923 64.853-64.896 141.696-103.765 234.752-118.784 32.981-5.333 89.899-5.333 122.88 0 92.971 15.019 169.984 53.973 234.752 118.784 64.811 64.768 103.765 141.781 118.784 234.752 3.029 18.773 3.712 30.165 3.712 61.44 0 43.648-2.987 67.499-13.355 107.008-34.304 130.432-128.085 234.752-255.957 284.757-51.797 20.267-117.973 30.037-177.536 26.325zM531.541 794.624c-4.543-3.666-10.626-8.367-16.784-12.973l-1.904-1.363c-100.209-77.259-164.134-197.342-164.134-332.355 0-135.579 64.462-256.101 164.408-332.592l1.006-0.739 18.347-13.909-20.907-0.512c-63.275-1.579-134.272 19.285-189.013 55.509-19.205 12.288-35.905 25.653-51.071 40.574l0.041-0.041c-66.431 63.493-107.729 152.801-107.729 251.755 0 93.745 37.064 178.833 97.337 241.409l-0.104-0.109c54.684 56.555 127.99 94.799 210.013 104.833l1.699 0.169c17.707 2.005 60.8 2.261 58.795 0.341zM663.723 761.643l17.792-8.448-128.725-128.725c-70.784-70.784-128.939-127.957-129.237-127.061-0.896 2.731 4.608 29.653 9.728 47.36 24.832 86.229 82.048 159.104 161.067 205.141 21.803 12.715 44.032 22.485 48.213 21.248 1.877-0.555 11.392-4.864 21.163-9.515zM760.533 691.584c10.197-10.581 21.973-23.723 26.112-29.141l7.552-9.899-172.203-172.203c-94.976-94.976-172.843-171.563-173.653-170.752-2.901 2.901-16.341 44.331-20.779 64.128l-4.565 20.267 158.421 158.421c87.125 87.125 158.891 158.421 159.488 158.421 0.555 0 9.387-8.661 19.627-19.243zM840.491 563.797c4.053-11.648 9.429-30.336 11.947-41.515l4.565-20.267-317.867-317.696-19.115 19.669c-9.062 9.19-17.777 18.824-26.067 28.824l-0.599 0.744-7.552 9.899 172.203 172.203c94.976 94.976 172.843 171.563 173.653 170.752s4.779-10.965 8.832-22.613zM853.333 377.813c-12.563-57.643-37.407-108.143-71.744-150.656l0.533 0.682c-12.203-15.104-41.472-43.819-55.936-54.869-27.947-21.333-75.947-48.128-86.101-48.085-2.389 0-12.757 4.011-23.083 8.875l-18.688 8.875 128.768 128.811c70.869 70.827 129.024 127.744 129.323 126.464 0.256-1.28-1.109-10.325-3.072-20.096z" />
<glyph unicode="&#xe911;" glyph-name="settings" d="M725.333 789.333c0 23.564-19.102 42.667-42.667 42.667s-42.667-19.103-42.667-42.667v-170.667c0-23.564 19.102-42.667 42.667-42.667s42.667 19.103 42.667 42.667v42.667h128c23.565 0 42.667 19.103 42.667 42.667s-19.102 42.667-42.667 42.667h-128v42.667zM128 704c0 23.564 19.103 42.667 42.667 42.667h341.333c23.565 0 42.667-19.103 42.667-42.667s-19.102-42.667-42.667-42.667h-341.333c-23.564 0-42.667 19.103-42.667 42.667zM128 192c0 23.565 19.103 42.667 42.667 42.667h170.667c23.564 0 42.667-19.102 42.667-42.667s-19.103-42.667-42.667-42.667h-170.667c-23.564 0-42.667 19.102-42.667 42.667zM512 490.667c-23.565 0-42.667-19.102-42.667-42.667s19.102-42.667 42.667-42.667h341.333c23.565 0 42.667 19.102 42.667 42.667s-19.102 42.667-42.667 42.667h-341.333zM554.667 277.333v-42.667h298.667c23.565 0 42.667-19.102 42.667-42.667s-19.102-42.667-42.667-42.667h-298.667v-42.667c0-23.565-19.102-42.667-42.667-42.667s-42.667 19.102-42.667 42.667v170.667c0 23.565 19.102 42.667 42.667 42.667s42.667-19.102 42.667-42.667zM128 448c0 23.565 19.103 42.667 42.667 42.667h128v42.667c0 23.564 19.103 42.667 42.667 42.667s42.667-19.103 42.667-42.667v-170.667c0-23.565-19.103-42.667-42.667-42.667s-42.667 19.102-42.667 42.667v42.667h-128c-23.564 0-42.667 19.102-42.667 42.667z" />
<glyph unicode="&#xe912;" glyph-name="square" d="M240.64 823.467c-16.213-1.963-24.875-4.608-39.424-12.16-30.222-15.91-52.731-43.038-62.203-75.708l-0.218-0.878c-2.944-10.496-3.115-25.557-3.115-286.72s0.171-276.224 3.115-286.72c12.259-41.898 44.587-74.227 85.594-86.261l0.891-0.224c10.496-2.944 25.557-3.115 286.72-3.115s276.224 0.171 286.72 3.115c41.898 12.259 74.227 44.587 86.261 85.594l0.224 0.891c2.944 10.496 3.115 25.557 3.115 286.72s-0.171 276.224-3.115 286.72c-9.732 33.621-32.318 60.799-61.952 76.388l-0.682 0.327c-26.411 13.739-2.347 12.715-302.891 13.056-147.371 0.171-272.939-0.299-279.040-1.024zM787.797 749.397c11.179-5.205 20.523-14.592 25.685-25.813l4.053-8.875-0.469-268.629c-0.427-259.499-0.555-268.8-3.627-274.56-6.315-11.648-13.184-18.603-23.595-23.808l-10.453-5.205h-534.784l-10.453 5.205c-10.951 5.416-19.442 14.418-24.070 25.444l-0.122 0.327c-3.328 7.296-3.371 12.245-3.413 274.517v267.093l4.053 8.704c5.163 11.093 14.507 20.437 25.6 25.6l8.704 4.053h534.187l8.704-4.053z" />
<glyph unicode="&#xe913;" glyph-name="3-2" d="M197.077 738.048c-34.56-3.371-63.787-20.565-82.517-48.597-10.069-15.019-14.805-26.923-19.243-48.299-3.115-15.189-3.243-23.723-2.773-200.533 0.512-184.405 0.512-184.619 4.309-197.931 7.808-27.691 22.912-48.896 45.611-64.085 15.104-10.112 27.008-14.848 48.256-19.243 15.275-3.157 26.112-3.243 328.533-2.816l312.747 0.469 13.312 3.797c36.602 10.264 65.302 37.277 77.703 72.031l0.249 0.801c8.789 25.557 8.747 24.235 8.192 222.208-0.512 183.936-0.512 184.149-4.309 197.461-13.312 47.104-51.072 78.251-102.784 84.736-17.024 2.091-605.397 2.133-627.285 0zM832.853 663.723c10.539-4.949 18.219-11.733 22.699-20.096l3.755-7.040v-186.88c0-186.581 0-186.88-3.584-194.56-4.949-10.539-11.733-18.219-20.096-22.699l-7.040-3.755h-629.76l-8.533 3.925c-9.497 4.022-17.096 10.987-21.816 19.735l-0.115 0.233-3.669 6.827v373.76l3.968 8.533c6.272 13.611 15.531 21.675 28.459 24.875 2.816 0.683 145.28 1.152 316.587 0.981l311.467-0.256 7.68-3.584z" />
<glyph unicode="&#xe914;" glyph-name="align-centre" d="M135.255 789.337c0 19.558 15.855 35.413 35.413 35.413h682.665c19.558 0 35.413-15.855 35.413-35.413s-15.855-35.413-35.413-35.413h-682.665c-19.558 0-35.413 15.855-35.413 35.413zM135.255 448.004c0 19.558 15.855 35.413 35.413 35.413h682.665c19.558 0 35.413-15.855 35.413-35.413s-15.855-35.413-35.413-35.413h-682.665c-19.558 0-35.413 15.855-35.413 35.413zM135.255 106.671c0 19.558 15.855 35.413 35.413 35.413h682.665c19.558 0 35.413-15.855 35.413-35.413s-15.855-35.413-35.413-35.413h-682.665c-19.558 0-35.413 15.855-35.413 35.413zM298.668 312.751c-19.558 0-35.413-15.855-35.413-35.413s15.855-35.413 35.413-35.413h426.665c19.558 0 35.413 15.855 35.413 35.413s-15.855 35.413-35.413 35.413h-426.665zM298.668 654.083c-19.558 0-35.413-15.855-35.413-35.413s15.855-35.413 35.413-35.413h426.665c19.558 0 35.413 15.855 35.413 35.413s-15.855 35.413-35.413 35.413h-426.665z" />
<glyph unicode="&#xe915;" glyph-name="align-left" d="M135.255 789.337c0 19.558 15.855 35.413 35.413 35.413h682.665c19.558 0 35.413-15.855 35.413-35.413s-15.855-35.413-35.413-35.413h-682.665c-19.558 0-35.413 15.855-35.413 35.413zM135.255 448.004c0 19.558 15.855 35.413 35.413 35.413h682.665c19.558 0 35.413-15.855 35.413-35.413s-15.855-35.413-35.413-35.413h-682.665c-19.558 0-35.413 15.855-35.413 35.413zM135.255 106.671c0 19.558 15.855 35.413 35.413 35.413h682.665c19.558 0 35.413-15.855 35.413-35.413s-15.855-35.413-35.413-35.413h-682.665c-19.558 0-35.413 15.855-35.413 35.413zM170.668 312.751c-19.558 0-35.413-15.855-35.413-35.413s15.855-35.413 35.413-35.413h426.665c19.558 0 35.413 15.855 35.413 35.413s-15.855 35.413-35.413 35.413h-426.665zM170.668 654.083c-19.558 0-35.413-15.855-35.413-35.413s15.855-35.413 35.413-35.413h426.665c19.558 0 35.413 15.855 35.413 35.413s-15.855 35.413-35.413 35.413h-426.665z" />
<glyph unicode="&#xe916;" glyph-name="align-right" d="M135.255 789.337c0 19.558 15.855 35.413 35.413 35.413h682.665c19.558 0 35.413-15.855 35.413-35.413s-15.855-35.413-35.413-35.413h-682.665c-19.558 0-35.413 15.855-35.413 35.413zM135.255 448.004c0 19.558 15.855 35.413 35.413 35.413h682.665c19.558 0 35.413-15.855 35.413-35.413s-15.855-35.413-35.413-35.413h-682.665c-19.558 0-35.413 15.855-35.413 35.413zM135.255 106.671c0 19.558 15.855 35.413 35.413 35.413h682.665c19.558 0 35.413-15.855 35.413-35.413s-15.855-35.413-35.413-35.413h-682.665c-19.558 0-35.413 15.855-35.413 35.413zM426.667 312.751c-19.556 0-35.412-15.855-35.412-35.413s15.855-35.413 35.412-35.413h426.667c19.558 0 35.413 15.855 35.413 35.413s-15.855 35.413-35.413 35.413h-426.667zM426.667 654.083c-19.556 0-35.412-15.855-35.412-35.413s15.855-35.413 35.412-35.413h426.667c19.558 0 35.413 15.855 35.413 35.413s-15.855 35.413-35.413 35.413h-426.667z" />
<glyph unicode="&#xe917;" glyph-name="free" d="M307.202 824.75h-1.414c-22.691 0-41.836 0.001-57.517-1.28-16.419-1.341-32.136-4.262-47.087-11.88-22.72-11.577-41.192-30.048-52.768-52.768-7.618-14.951-10.539-30.668-11.881-47.087-1.281-15.681-1.281-34.825-1.28-57.516v-78.214c0-19.558 15.855-35.413 35.414-35.413s35.413 15.855 35.413 35.413v76.8c0 24.48 0.027 40.71 1.045 53.163 0.983 12.040 2.713 17.398 4.396 20.701 4.786 9.393 12.423 17.030 21.816 21.815 3.302 1.683 8.66 3.412 20.7 4.396 12.453 1.018 28.683 1.045 53.163 1.045h76.8c19.558 0 35.413 15.855 35.413 35.413s-15.855 35.413-35.413 35.413h-76.8zM716.8 824.75h1.417c22.69 0 41.835 0.001 57.515-1.28 16.422-1.341 32.137-4.262 47.087-11.88 22.72-11.577 41.195-30.048 52.77-52.768 7.616-14.951 10.539-30.668 11.878-47.087 1.284-15.682 1.284-34.825 1.28-57.517v-78.213c0-19.558-15.855-35.413-35.413-35.413s-35.413 15.855-35.413 35.413v76.8c0 24.48-0.026 40.71-1.041 53.163-0.986 12.040-2.714 17.398-4.399 20.701-4.783 9.393-12.42 17.030-21.815 21.815-3.302 1.683-8.661 3.412-20.698 4.396-12.454 1.018-28.685 1.045-53.167 1.045h-76.8c-19.558 0-35.413 15.855-35.413 35.413s15.855 35.413 35.413 35.413h76.8zM305.789 71.258h78.214c19.558 0 35.413 15.855 35.413 35.413s-15.855 35.413-35.413 35.413h-76.8c-24.48 0-40.71 0.026-53.163 1.045-12.040 0.981-17.398 2.714-20.7 4.395-9.393 4.787-17.030 12.425-21.816 21.815-1.683 3.302-3.412 8.661-4.396 20.702-1.018 12.45-1.045 28.681-1.045 53.163v76.8c0 19.558-15.855 35.413-35.413 35.413s-35.414-15.855-35.414-35.413v-78.217c0-22.69-0.001-41.835 1.28-57.515 1.341-16.418 4.262-32.137 11.881-47.087 11.576-22.72 30.048-41.195 52.768-52.77 14.951-7.616 30.668-10.539 47.087-11.878 15.682-1.28 34.825-1.28 57.517-1.28zM716.8 71.258h1.417c22.69 0 41.835 0 57.515 1.28 16.422 1.34 32.137 4.262 47.087 11.878 22.72 11.575 41.195 30.050 52.77 52.77 7.616 14.95 10.539 30.669 11.878 47.087 1.284 15.68 1.284 34.825 1.28 57.519v78.212c0 19.558-15.855 35.413-35.413 35.413s-35.413-15.855-35.413-35.413v-76.8c0-24.482-0.026-40.713-1.041-53.163-0.986-12.041-2.714-17.399-4.399-20.702-4.783-9.391-12.42-17.028-21.815-21.815-3.302-1.681-8.661-3.413-20.698-4.395-12.454-1.020-28.685-1.045-53.167-1.045h-76.8c-19.558 0-35.413-15.855-35.413-35.413s15.855-35.413 35.413-35.413h76.8z" />
<glyph unicode="&#xe918;" glyph-name="original" d="M305.789 824.75h412.428c22.69 0 41.835 0.001 57.515-1.28 16.422-1.341 32.137-4.262 47.087-11.88 22.72-11.577 41.195-30.048 52.77-52.768 7.616-14.951 10.539-30.668 11.878-47.087 1.284-15.682 1.284-34.826 1.28-57.519v-412.423c0.004-8.623 0.004-16.734-0.068-24.333 0.077-3.895 0.073-7.974 0.073-12.335v-0.009l-0.004-2.219v-10.893h-0.759c-0.145-2.667-0.316-5.244-0.521-7.731-1.34-16.418-4.262-32.137-11.878-47.087-11.575-22.72-30.050-41.195-52.77-52.77-14.95-7.616-30.665-10.539-47.087-11.878-15.68-1.28-34.825-1.28-57.519-1.28h-412.422c-22.692 0-41.837 0-57.519 1.28-16.419 1.34-32.136 4.262-47.087 11.878-22.72 11.575-41.192 30.050-52.768 52.77-7.618 14.95-10.539 30.669-11.881 47.087-1.281 15.68-1.281 34.825-1.28 57.515v412.43c0 22.691-0.001 41.835 1.28 57.516 1.341 16.419 4.262 32.136 11.881 47.087 11.576 22.72 30.048 41.192 52.768 52.768 14.951 7.618 30.668 10.539 47.087 11.88 15.681 1.281 34.825 1.281 57.517 1.28v0zM591.706 142.084h125.094c24.482 0 40.713 0.026 53.167 1.045 12.036 0.981 17.395 2.714 20.698 4.395 9.395 4.787 17.033 12.425 21.815 21.815 1.685 3.302 3.413 8.661 4.399 20.702 0.597 7.33 0.853 15.97 0.96 26.829-0.085 4.544-0.26 6.665-0.593 8.666-0.602 3.614-1.6 7.151-2.978 10.547-1.297 3.2-3.17 6.473-11.251 19.657l-84.565 137.975c-14.801 24.149-24.657 40.158-32.998 51.337-8.38 11.23-12.079 13.086-12.762 13.38-7.245 3.136-15.462 3.136-22.707 0-0.683-0.294-4.382-2.15-12.766-13.38-8.341-11.179-18.193-27.187-32.994-51.337l-83.375-136.030 70.857-115.601zM479.317 325.457l65.395 106.697c13.692 22.345 25.229 41.169 35.746 55.262 10.701 14.336 23.509 28.279 41.399 36.019 25.19 10.9 53.769 10.9 78.959 0 17.89-7.74 30.694-21.683 41.399-36.019 10.517-14.093 22.054-32.917 35.746-55.262v0l0.875-1.425 39.083-63.77v285.844c0 24.48-0.026 40.71-1.041 53.163-0.986 12.040-2.714 17.398-4.399 20.701-4.783 9.393-12.42 17.030-21.815 21.815-3.302 1.683-8.661 3.412-20.698 4.396-12.454 1.018-28.685 1.045-53.167 1.045h-409.598c-24.48 0-40.71-0.028-53.163-1.045-12.040-0.983-17.398-2.713-20.7-4.396-9.393-4.786-17.030-12.422-21.816-21.815-1.683-3.303-3.412-8.661-4.396-20.701-1.018-12.453-1.045-28.683-1.045-53.163v-392.52l39.962 65.203c13.693 22.345 25.231 41.169 35.748 55.262 10.701 14.336 23.508 28.279 41.399 36.019 25.191 10.901 53.768 10.901 78.959 0 17.891-7.74 30.695-21.683 41.4-36.019 10.517-14.093 22.054-32.917 35.746-55.258l0.021-0.034zM223.881 153.788l81.676 133.261c14.8 24.149 24.654 40.158 32.995 51.337 8.381 11.23 12.082 13.086 12.765 13.38 7.244 3.136 15.461 3.136 22.705 0 0.683-0.294 4.384-2.15 12.765-13.38 8.341-11.179 18.195-27.187 32.995-51.337l88.85-144.964h-201.431c-24.48 0-40.71 0.026-53.163 1.045-12.040 0.981-17.398 2.714-20.7 4.395-3.4 1.732-6.57 3.84-9.457 6.263z" />
<glyph unicode="&#xe919;" glyph-name="4-3" d="M197.973 780.8c-16.213-1.963-24.875-4.608-39.424-12.16-30.222-15.91-52.731-43.038-62.203-75.708l-0.218-0.878c-2.944-10.453-3.115-24.149-3.115-244.053s0.171-233.6 3.115-244.053c12.259-41.898 44.587-74.227 85.594-86.261l0.891-0.224c10.539-2.944 27.008-3.115 329.387-3.115s318.848 0.171 329.387 3.115c41.898 12.259 74.227 44.587 86.261 85.594l0.224 0.891c2.944 10.453 3.115 24.149 3.115 244.053s-0.171 233.6-3.115 244.053c-9.732 33.621-32.318 60.799-61.952 76.388l-0.682 0.327c-26.624 13.824 2.901 12.715-345.557 13.056-170.837 0.171-315.605-0.299-321.707-1.024zM830.464 706.731c11.179-5.205 20.523-14.592 25.685-25.813l4.053-8.917-0.427-225.92c-0.469-217.685-0.597-226.133-3.669-231.893-6.315-11.648-13.184-18.603-23.595-23.808l-10.453-5.205h-620.117l-10.453 5.205c-10.951 5.416-19.442 14.418-24.070 25.444l-0.122 0.327c-3.328 7.253-3.371 12.032-3.413 231.851v224.427l4.053 8.704c5.163 11.093 14.507 20.437 25.6 25.6l8.704 4.053h619.52l8.704-4.053z" />
<glyph unicode="&#xe91a;" glyph-name="redo" d="M609.83 759.163c-16.661 16.663-16.661 43.677 0 60.34s43.678 16.662 60.339 0l170.667-170.667c16.661-16.663 16.661-43.677 0-60.34l-170.667-170.666c-16.661-16.661-43.678-16.661-60.339 0s-16.661 43.678 0 60.339l97.83 97.83h-280.994c-94.257 0-170.667-76.412-170.667-170.667s76.41-170.667 170.667-170.667h256c23.565 0 42.667-19.102 42.667-42.667s-19.102-42.667-42.667-42.667h-256c-141.385 0-256 114.615-256 256s114.615 256 256 256h280.994l-97.83 97.83z" />
<glyph unicode="&#xe91b;" glyph-name="rotate" d="M579.708 899.711c13.828-13.83 13.828-36.253 0-50.082l-67.546-67.546h42.505c208.073 0 376.747-168.675 376.747-376.746 0-208.073-168.674-376.747-376.747-376.747-49.894 0-97.609 9.719-141.287 27.396-18.129 7.339-26.877 27.985-19.538 46.114s27.984 26.88 46.112 19.541c35.379-14.323 74.082-22.225 114.714-22.225 168.956 0 305.92 136.964 305.92 305.92 0 168.954-136.964 305.919-305.92 305.919h-42.505l67.546-67.546c13.828-13.83 13.828-36.253 0-50.082s-36.25-13.83-50.082 0l-127.999 128c-13.83 13.83-13.83 36.252 0 50.082l127.999 128c13.833 13.83 36.254 13.83 50.082 0zM274.539 611.255c15.682 5.095 32.574 5.095 48.256 0 11.088-3.603 19.719-9.747 26.836-15.789 6.561-5.569 13.784-12.794 21.5-20.511l97.157-97.157c7.714-7.714 14.938-14.938 20.51-21.5 6.042-7.117 12.186-15.744 15.787-26.833 5.099-15.684 5.099-32.576 0-48.256-3.601-11.089-9.745-19.721-15.787-26.837-5.572-6.562-12.796-13.786-20.514-21.5l-97.152-97.152c-7.716-7.718-14.939-14.942-21.5-20.514-7.117-6.042-15.748-12.186-26.836-15.787-15.682-5.099-32.574-5.099-48.256 0-11.088 3.601-19.719 9.745-26.836 15.787-6.56 5.568-13.782 12.791-21.497 20.51l-0.003 0.004-97.158 97.156c-7.715 7.714-14.939 14.938-20.508 21.495-6.042 7.117-12.186 15.748-15.789 26.837-5.096 15.68-5.096 32.572 0 48.256 3.602 11.089 9.747 19.716 15.789 26.833 5.57 6.562 12.794 13.786 20.511 21.5l0.85 0.849 96.307 96.309c7.715 7.716 14.938 14.941 21.498 20.51 7.117 6.042 15.748 12.186 26.836 15.789zM296.86 544.021c-0.444-0.28-1.494-1-3.319-2.549-4.083-3.466-9.242-8.587-18.104-17.449l-95.456-95.458c-8.861-8.858-13.982-14.020-17.449-18.103-1.549-1.822-2.269-2.871-2.549-3.319-0.305-1.182-0.305-2.428 0-3.614 0.28-0.444 1-1.493 2.549-3.319 3.466-4.083 8.587-9.242 17.449-18.103l95.456-95.458c8.862-8.858 14.021-13.982 18.104-17.446 1.825-1.549 2.875-2.27 3.319-2.547 1.186-0.307 2.429-0.307 3.615 0 0.444 0.277 1.494 0.998 3.319 2.547 4.083 3.465 9.242 8.589 18.104 17.446l95.456 95.458c8.861 8.862 13.984 14.020 17.449 18.103 1.549 1.826 2.27 2.876 2.547 3.319 0.307 1.186 0.307 2.432 0 3.614-0.277 0.448-0.998 1.498-2.547 3.319-3.465 4.083-8.587 9.246-17.449 18.103l-95.456 95.458c-8.862 8.862-14.021 13.983-18.104 17.449-1.825 1.549-2.875 2.269-3.319 2.549-1.186 0.305-2.429 0.305-3.615 0z" />
<glyph unicode="&#xe91c;" glyph-name="saturation" d="M536.819 857.267c-13.777 13.533-35.857 13.533-49.634 0l-211.157-207.422c-30.391-30.391-54.351-65.084-71.697-103.938-17.734-39.726-26.409-82.644-26.409-128.302 0-91.012 32.903-169.6 97.774-233.775 64.891-64.196 144.342-96.572 236.304-96.572 91.968 0 171.418 32.375 236.309 96.572 64.87 64.175 97.771 142.763 97.771 233.775 0 45.658-8.674 88.576-26.406 128.302-17.348 38.854-41.306 73.547-71.697 103.938v0.001l-0.226 0.221-210.931 207.2zM269.006 517.035c13.745 30.788 32.684 58.282 56.996 82.62l185.998 182.708v-624.278c-73.545 0-135.027 25.182-186.492 76.096-51.484 50.931-76.759 111.411-76.759 183.424 0 36.476 6.881 69.466 20.257 99.43z" />
<glyph unicode="&#xe91d;" glyph-name="smile" d="M128 448c0 212.077 171.923 384 384 384 212.079 0 384-171.923 384-384 0-212.079-171.921-384-384-384-212.077 0-384 171.921-384 384zM512 917.333c-259.206 0-469.333-210.128-469.333-469.333 0-259.204 210.128-469.333 469.333-469.333 259.204 0 469.333 210.129 469.333 469.333 0 259.206-210.129 469.333-469.333 469.333zM340.847 360.879c-10.71 20.992-36.408 29.325-57.397 18.615-20.989-10.714-29.323-36.407-18.612-57.399 45.817-89.792 139.255-151.428 247.163-151.428 107.746 0 201.071 61.457 246.959 151.027 10.743 20.975 2.453 46.686-18.522 57.429-20.971 10.743-46.682 2.453-57.425-18.522-31.863-62.191-96.521-104.602-171.012-104.602-74.603 0-139.343 42.539-171.153 104.879zM426.667 554.667c0-35.345-23.878-64-53.333-64s-53.333 28.655-53.333 64c0 35.346 23.878 64 53.333 64s53.333-28.654 53.333-64zM650.667 490.667c29.457 0 53.333 28.655 53.333 64 0 35.346-23.876 64-53.333 64s-53.333-28.654-53.333-64c0-35.345 23.876-64 53.333-64z" />
<glyph unicode="&#xe91e;" glyph-name="text" d="M256 789.333c-47.128 0-85.333-38.205-85.333-85.333v-42.667c0-23.564 19.103-42.667 42.667-42.667s42.667 19.103 42.667 42.667v42.667h213.333v-512h-42.667c-23.564 0-42.667-19.102-42.667-42.667s19.103-42.667 42.667-42.667h170.667c23.565 0 42.667 19.102 42.667 42.667s-19.102 42.667-42.667 42.667h-42.667v512h213.333v-42.667c0-23.564 19.102-42.667 42.667-42.667s42.667 19.103 42.667 42.667v42.667c0 47.128-38.204 85.333-85.333 85.333h-512z" />
<glyph unicode="&#xe91f;" glyph-name="undo" d="M414.17 759.163c16.661 16.663 16.661 43.677 0 60.34-16.663 16.662-43.677 16.662-60.34 0l-170.667-170.667c-16.662-16.663-16.662-43.677 0-60.34l170.667-170.666c16.663-16.661 43.677-16.661 60.34 0 16.661 16.661 16.661 43.678 0 60.339l-97.83 97.83h280.994c94.255 0 170.667-76.412 170.667-170.667s-76.412-170.667-170.667-170.667h-256c-23.564 0-42.667-19.102-42.667-42.667s19.103-42.667 42.667-42.667h256c141.385 0 256 114.615 256 256s-114.615 256-256 256h-280.994l97.83 97.83z" />
<glyph unicode="&#xe920;" glyph-name="vignette" d="M147.487 673.967c25.983 62.727 75.819 112.564 138.546 138.546 47.046 19.487 106.686 19.487 225.967 19.487 119.279 0 178.923 0 225.967-19.487 62.729-25.983 112.563-75.819 138.547-138.546 19.486-47.046 19.486-106.686 19.486-225.967 0-119.279 0-178.923-19.486-225.967-25.984-62.729-75.819-112.563-138.547-138.547-47.044-19.486-106.688-19.486-225.967-19.486-119.281 0-178.921 0-225.967 19.486-62.727 25.984-112.564 75.819-138.546 138.547-19.487 47.044-19.487 106.688-19.487 225.967 0 119.281 0 178.921 19.487 225.967zM512 149.333c164.949 0 298.667 133.717 298.667 298.667s-133.717 298.667-298.667 298.667c-164.949 0-298.667-133.718-298.667-298.667s133.718-298.667 298.667-298.667z" />
<glyph unicode="&#xe921;" glyph-name="warmth" d="M341.335 753.923c-27.57 0-49.92-22.35-49.92-49.92v-278.834c0-12.638-6.738-24.32-17.681-30.652-40.52-23.441-67.653-67.162-67.653-117.18h270.505c0 50.018-27.132 93.739-67.651 117.18-10.942 6.332-17.681 18.014-17.681 30.652v278.834c0 27.57-22.35 49.92-49.92 49.92zM220.588 704.003c0 66.686 54.060 120.747 120.747 120.747s120.745-54.060 120.745-120.747v-259.651c51.648-37.402 85.333-98.257 85.333-167.014 0-113.818-92.262-206.080-206.078-206.080s-206.080 92.262-206.080 206.080c0 68.757 33.687 129.613 85.333 167.014v259.651zM597.333 739.417c-19.558 0-35.413-15.855-35.413-35.413s15.855-35.413 35.413-35.413h256c19.558 0 35.413 15.855 35.413 35.413s-15.855 35.413-35.413 35.413h-256zM597.333 568.75c-19.558 0-35.413-15.855-35.413-35.413s15.855-35.412 35.413-35.412h128c19.558 0 35.413 15.855 35.413 35.412s-15.855 35.413-35.413 35.413h-128z" />
<glyph unicode="&#xe922;" glyph-name="FrameBlack" d="M488.96 777.813v0c7.394 1.527 15.892 2.401 24.594 2.401 6.983 0 13.834-0.563 20.511-1.646l-0.731 0.098c27.307-5.973 54.613-26.88 67.413-52.48 9.813-18.773 198.827-485.547 200.96-495.36 1.45-5.766 2.282-12.386 2.282-19.2s-0.832-13.434-2.4-19.763l0.118 0.563c-8.635-37.478-36.872-66.71-73.092-76.632l-0.722-0.168c-12.373-3.413-34.56-3.413-46.933 0-23.893 6.4-46.507 22.187-59.307 42.24-3.413 5.12-14.933 30.72-25.6 56.747l-19.2 46.933h-128.853l-19.2-46.933c-10.667-26.027-22.187-51.627-25.6-56.747-18.139-27.113-48.637-44.725-83.249-44.725-7.849 0-15.486 0.906-22.813 2.618l0.675-0.133c-11.947 2.987-28.587 10.667-37.12 17.067-29.44 22.187-45.227 63.147-37.973 97.28 1.707 7.68 38.827 101.12 100.267 250.88 53.76 131.413 99.413 241.92 101.12 245.333 13.476 25.287 36.498 43.99 64.133 51.461l0.72 0.166zM544.777 696.079c-5.444 13.309-18.398 22.005-32.777 22.005s-27.332-8.695-32.777-22.005l-192-469.335c-7.405-18.099 1.266-38.78 19.368-46.182 18.102-7.407 38.78 1.263 46.185 19.366l52.089 127.33h214.269l52.087-127.33c7.407-18.103 28.083-26.773 46.187-19.366 18.103 7.403 26.773 28.083 19.366 46.182l-192 469.335zM590.161 398.084l-78.161 191.056-78.161-191.056h156.322z" />
<glyph unicode="&#xe923;" glyph-name="5-4" d="M186.027 800.341c-6.101-1.323-18.389-5.973-27.264-10.368-28.075-13.867-50.347-39.936-61.099-71.467l-4.651-13.653v-513.707l4.651-13.653c12.348-36.574 40.102-65.041 75.336-78.098l0.866-0.281 14.72-5.248h646.827l14.72 5.248c36.101 13.337 63.855 41.804 75.943 77.497l0.259 0.882 4.651 13.653v513.707l-4.651 13.653c-6.517 19.578-17.253 36.257-31.19 49.624l-0.042 0.040c-8.232 9.051-18.159 16.398-29.302 21.567l-0.565 0.235c-28.245 13.909-1.963 12.971-354.091 12.843-261.547-0.085-315.861-0.512-325.12-2.475zM830.763 728.107c6.419-3.214 11.875-7.375 16.43-12.372l0.040-0.044c13.952-15.445 12.928 5.504 12.928-267.691 0-270.293 0.811-251.904-11.435-266.197-6.638-8.16-15.716-14.106-26.114-16.738l-0.34-0.073c-11.477-2.859-609.067-2.859-620.544 0-10.737 2.705-19.815 8.651-26.382 16.721l-0.071 0.090c-12.245 14.293-11.435-4.096-11.435 266.197 0 272.043-0.939 252.075 12.288 267.051 6.952 8.149 16.448 13.944 27.249 16.16l0.314 0.054c3.883 0.768 144.555 1.28 312.576 1.152l305.493-0.256 9.003-4.053z" />
<glyph unicode="&#xe924;" glyph-name="7-6" d="M197.973 823.467c-16.213-1.963-24.875-4.608-39.424-12.16-30.222-15.91-52.731-43.038-62.203-75.708l-0.218-0.878c-2.944-10.496-3.115-25.557-3.115-286.72s0.171-276.224 3.115-286.72c12.259-41.898 44.587-74.227 85.594-86.261l0.891-0.224c10.539-2.944 27.008-3.115 329.387-3.115s318.848 0.171 329.387 3.115c41.898 12.259 74.227 44.587 86.261 85.594l0.224 0.891c2.944 10.496 3.115 25.557 3.115 286.72s-0.171 276.224-3.115 286.72c-9.732 33.621-32.318 60.799-61.952 76.388l-0.682 0.327c-26.624 13.824 2.901 12.715-345.557 13.056-170.837 0.171-315.605-0.299-321.707-1.024zM830.464 749.397c11.179-5.205 20.523-14.592 25.685-25.813l4.053-8.875-0.469-268.629c-0.427-259.499-0.555-268.8-3.627-274.56-6.315-11.648-13.184-18.603-23.595-23.808l-10.453-5.205h-620.117l-10.453 5.205c-10.951 5.416-19.442 14.418-24.070 25.444l-0.122 0.327c-3.328 7.296-3.371 12.245-3.413 274.517v267.093l4.053 8.704c5.163 11.093 14.507 20.437 25.6 25.6l8.704 4.053h619.52l8.704-4.053z" />
<glyph unicode="&#xe925;" glyph-name="16-9" d="M164.693 714.88c-42.325-8.917-81.493-48.085-90.453-90.453-3.712-17.451-3.712-335.403 0-352.853 8.96-42.411 48.256-81.707 90.667-90.667 17.621-3.755 676.565-3.755 694.187 0 42.411 8.96 81.707 48.256 90.667 90.667 3.712 17.451 3.712 335.403 0 352.853-6.997 33.109-32.768 65.365-64.853 81.195-26.112 12.843-1.067 12.032-374.101 11.904-287.189-0.128-335.829-0.512-346.112-2.645zM851.883 643.157c10.155-4.693 21.248-15.787 25.941-25.941l3.669-7.936v-322.56l-3.669-7.936c-4.693-10.155-15.787-21.248-25.941-25.941l-7.936-3.669h-663.893l-7.936 3.669c-11.215 5.81-20.131 14.727-25.785 25.611l-0.156 0.331-3.669 7.936v322.56l3.669 7.936c4.139 8.96 14.763 20.352 22.955 24.576 3.029 1.579 9.003 3.456 13.312 4.181s154.923 1.237 334.677 1.109l326.827-0.256 7.936-3.669z" />
</font>
</defs>
</svg>
